<svg viewBox="0 0 146 70" fill="none" xmlns="http://www.w3.org/2000/svg">
<g clip-path="url(#clip0_409_40)">
<path d="M34.027 11.6272L22.507 23.1472L11.04 11.6803L0 22.7203C6.3349 29.0552 6.347 39.3072 0.0270004 45.6272L11.093 56.6933L22.533 45.2533L34 56.7203L45.04 45.6803C38.7051 39.3454 38.773 29.0133 45.093 22.6933L34.027 11.6272Z" fill="#0A0A0A"/>
<path d="M122.392 15.8086C124.824 15.8086 126.936 16.2993 128.728 17.2806C130.562 18.2619 131.97 19.5846 132.952 21.2486V16.2566H145.496V51.7766C145.496 55.1473 144.856 58.1766 143.576 60.8646C142.296 63.5953 140.29 65.7713 137.56 67.3926C134.872 69.0139 131.458 69.8246 127.32 69.8246C121.773 69.8246 117.336 68.5233 114.008 65.9206C110.68 63.3179 108.781 59.7766 108.312 55.2966H120.664C120.92 56.4486 121.56 57.3446 122.584 57.9846C123.608 58.6246 124.93 58.9446 126.552 58.9446C130.818 58.9446 132.952 56.5553 132.952 51.7766V47.1686C131.97 48.8326 130.562 50.1553 128.728 51.1366C126.936 52.1179 124.824 52.6086 122.392 52.6086C119.533 52.6086 116.93 51.8619 114.584 50.3686C112.28 48.8753 110.445 46.7419 109.08 43.9686C107.757 41.1526 107.096 37.8886 107.096 34.1766C107.096 30.4646 107.757 27.2219 109.08 24.4486C110.445 21.6753 112.28 19.5419 114.584 18.0486C116.93 16.5553 119.533 15.8086 122.392 15.8086ZM132.952 34.1766C132.952 31.8726 132.312 30.0593 131.032 28.7366C129.794 27.4139 128.258 26.7526 126.424 26.7526C124.546 26.7526 122.989 27.4139 121.752 28.7366C120.514 30.0166 119.896 31.8299 119.896 34.1766C119.896 36.4806 120.514 38.3153 121.752 39.6806C122.989 41.0033 124.546 41.6646 126.424 41.6646C128.258 41.6646 129.794 41.0033 131.032 39.6806C132.312 38.3579 132.952 36.5233 132.952 34.1766Z" fill="#0A0A0A"/>
<path d="M95.7916 12.928C93.573 12.928 91.781 12.3307 90.4156 11.136C89.093 9.89867 88.4316 8.36267 88.4316 6.528C88.4316 4.65067 89.093 3.09334 90.4156 1.856C91.781 0.618668 93.573 0 95.7916 0C97.9676 0 99.717 0.618668 101.04 1.856C102.405 3.09334 103.088 4.65067 103.088 6.528C103.088 8.36267 102.405 9.89867 101.04 11.136C99.717 12.3307 97.9676 12.928 95.7916 12.928ZM102 16.256V52.16H89.4556V16.256H102Z" fill="#0A0A0A"/>
<path d="M84.3227 33.7926C84.3227 34.7739 84.2587 35.7553 84.1307 36.7366H60.3867C60.5147 38.6993 61.048 40.1713 61.9867 41.1526C62.968 42.0913 64.2054 42.5606 65.6987 42.5606C67.7894 42.5606 69.2827 41.6219 70.1787 39.7446H83.5547C83 42.2193 81.912 44.4379 80.2907 46.4006C78.712 48.3206 76.7067 49.8353 74.2747 50.9446C71.8427 52.0539 69.1547 52.6086 66.2107 52.6086C62.6694 52.6086 59.512 51.8619 56.7387 50.3686C54.008 48.8753 51.8534 46.7419 50.2747 43.9686C48.7387 41.1953 47.9707 37.9313 47.9707 34.1766C47.9707 30.4219 48.7387 27.1793 50.2747 24.4486C51.8107 21.6753 53.944 19.5419 56.6747 18.0486C59.448 16.5553 62.6267 15.8086 66.2107 15.8086C69.752 15.8086 72.888 16.5339 75.6187 17.9846C78.3494 19.4353 80.4827 21.5259 82.0187 24.2566C83.5547 26.9446 84.3227 30.1233 84.3227 33.7926ZM71.5227 30.6566C71.5227 29.1206 71.0107 27.9259 69.9867 27.0726C68.9627 26.1766 67.6827 25.7286 66.1467 25.7286C64.6107 25.7286 63.352 26.1553 62.3707 27.0086C61.3894 27.8193 60.7494 29.0353 60.4507 30.6566H71.5227Z" fill="#0A0A0A"/>
</g>
<defs>
<clipPath id="clip0_409_40">
<rect width="145.496" height="69.8246" fill="white"/>
</clipPath>
</defs>
</svg>
